<svg width="119" height="40" viewBox="0 0 119 40" fill="none" xmlns="http://www.w3.org/2000/svg">
<path d="M48.481 28.7699C48.5827 25.7534 49.9059 23.1004 52.7896 21.5013C55.368 20.0839 57.9125 20.3383 60.2874 22.1191C60.8641 22.5552 61.7123 22.9914 60.7963 23.8999C60.1856 24.5178 60.016 26.0078 58.5232 24.8812C56.5555 23.4275 54.1467 23.9726 52.7896 25.8625C51.3308 27.8613 51.4665 30.8415 53.095 32.695C54.6895 34.4758 57.0644 34.5848 59.066 32.9494C60.0499 32.1498 61.6105 32.6223 62.0176 33.8216C62.2551 34.4395 61.7123 34.6939 61.4409 34.9846C59.3374 37.4196 56.1483 38.2192 53.4003 37.0925C50.4487 35.8932 48.5149 32.7677 48.481 28.7699Z" fill="white"/>
<path d="M99.4046 6.01911C103.951 4.02023 107.275 6.45523 107.309 11.5433C107.309 12.8153 107.242 14.0873 107.343 15.3593C107.445 16.704 107.106 17.1401 105.783 17.1038C104.527 17.0674 104.256 16.6313 104.324 15.3957C104.392 13.9419 104.392 12.4882 104.324 11.0345C104.222 9.21731 103.035 7.98164 101.712 8.09067C100.354 8.1997 99.5063 9.29 99.4724 11.1435C99.4385 12.7063 99.4046 14.3054 99.4724 15.8681C99.5403 17.2855 98.6582 17.0311 97.9118 17.0311C97.1654 17.0311 96.3172 17.3582 96.3512 15.9045C96.419 10.9981 96.419 6.0918 96.3512 1.22181C96.3172 -0.159235 97.0975 -0.0138618 97.8779 0.0224814C98.6242 0.0588246 99.5403 -0.268264 99.4724 1.14912C99.3706 2.71188 99.4046 4.27464 99.4046 6.01911Z" fill="#00ADEF"/>
<path d="M58.3535 11.1435C58.3535 9.87151 58.3535 8.5995 58.3535 7.32749C58.3535 5.47399 59.3374 4.74712 60.8641 5.61936C61.4069 5.94645 61.7462 6.01913 62.3229 5.83742C65.7156 4.63809 68.1922 6.56428 68.2601 10.3803C68.294 12.1248 68.1922 13.9056 68.294 15.6501C68.3958 17.0311 67.7173 17.1038 66.7673 17.0675C65.9191 17.0311 65.071 17.2128 65.1728 15.7228C65.3085 14.051 65.2067 12.3428 65.2067 10.6347C65.2067 9.29002 64.6639 8.3451 63.3407 8.38144C62.0854 8.38144 61.4069 9.18099 61.4069 10.5984C61.4408 12.3428 61.3391 14.1237 61.4408 15.8681C61.5087 17.2855 60.6266 17.0311 59.8802 17.0311C59.1338 17.0311 58.2518 17.3219 58.3196 15.8681C58.4214 14.3054 58.3535 12.7063 58.3535 11.1435Z" fill="#00ADEF"/>
<path d="M53.9772 17.0312C53.5362 17.0312 53.0612 17.0675 52.6202 17.0312C52.0774 16.9585 51.1613 17.4309 51.1953 16.377C51.2292 15.6138 50.5167 14.4871 51.806 14.1237C52.5523 13.9056 52.3148 13.2878 52.3148 12.8153C52.3488 10.1623 52.3148 7.50923 52.3148 4.85618C52.3148 4.27469 52.3488 3.83857 51.5685 3.54783C50.6185 3.18439 51.1613 2.05776 51.1274 1.29455C51.0935 0.349625 51.9077 0.640371 52.4166 0.604027C53.2648 0.567684 54.113 0.531341 54.9611 0.604027C55.5718 0.676714 56.5557 0.131566 56.6574 1.11283C56.7592 1.94873 57.3699 3.18439 56.0128 3.6932C55.4361 3.91126 55.6736 4.52909 55.6736 4.96521C55.6396 7.61826 55.6396 10.2713 55.6736 12.9244C55.6736 13.4332 55.6057 13.8693 56.2842 14.1964C57.2681 14.6688 56.7253 15.7955 56.7253 16.595C56.6914 17.3946 55.945 17.0312 55.5039 17.0675C54.995 17.0675 54.4861 17.0312 53.9772 17.0312Z" fill="#00ADEF"/>
<path d="M73.1796 17.3219C72.3653 17.2855 71.4493 17.0675 70.6351 16.4497C70.0922 16.0499 69.1762 15.4684 69.5833 14.8869C70.0583 14.2327 70.9404 13.3241 72.0261 14.1964C72.4671 14.5598 72.976 14.5598 73.4849 14.5235C73.9938 14.4871 74.4009 14.2691 74.5027 13.7239C74.6384 13.0697 74.0956 12.9244 73.7224 12.7426C73.3153 12.5609 72.8403 12.5246 72.3992 12.4156C70.2619 11.7614 69.2441 10.453 69.4816 8.63587C69.7191 6.74602 71.3815 5.2196 73.3153 5.2196C74.367 5.2196 75.3169 5.54669 76.0972 6.34624C76.5383 6.78236 77.2847 7.43654 76.9115 7.94534C76.4365 8.59952 75.5205 8.96295 74.6384 8.56318C74.3331 8.41781 74.0616 8.1634 73.7563 8.05437C73.1796 7.87266 72.7385 8.1634 72.535 8.7449C72.3314 9.36273 72.7724 9.61713 73.2135 9.79885C73.5867 9.94422 73.9938 10.0169 74.367 10.0896C76.7418 10.7438 77.8953 12.0885 77.6239 13.9783C77.3525 15.8318 75.4866 17.3219 73.1796 17.3219Z" fill="#00ADEF"/>
<path d="M113.043 17.4309C110.6 17.4309 109.447 16.3406 109.311 13.9056C109.243 12.7063 109.277 11.5069 109.243 10.2713C109.209 9.36269 109.549 8.34508 108.09 8.19971C107.411 8.12702 107.513 6.41889 108.293 5.91009C108.802 5.583 109.345 5.36494 109.243 4.60173C108.904 2.42114 110.329 2.8936 111.448 2.85726C112.127 2.82092 112.398 3.18435 112.331 3.83853C112.161 5.11054 112.636 5.61934 113.823 5.43763C114.977 5.21957 115.214 5.8374 115.214 6.96404C115.248 8.12702 114.807 8.49045 113.823 8.30874C112.67 8.12702 112.161 8.59948 112.297 9.8715C112.398 10.7801 112.331 11.6887 112.331 12.5972C112.331 13.7602 112.772 14.5234 113.891 14.4507C114.773 14.4144 115.214 14.5234 115.18 15.6501C115.146 16.6677 114.943 17.2855 113.925 17.3219C113.586 17.3945 113.247 17.4309 113.043 17.4309Z" fill="#00ADEF"/>
<path d="M21.7469 20.3747C17.5739 26.0078 6.51389 40 6.51389 40L0 39.9636C0 39.9636 0.373192 39.4185 0.576751 39.1641C5.32646 32.8767 10.1101 26.553 14.8598 20.2656C17.1668 20.302 19.4738 20.3383 21.7469 20.3747ZM25.5467 20.2656C21.5773 25.0993 17.981 30.2237 13.9777 35.4934C15.4366 35.4934 21.0684 35.021 21.0684 35.021C21.0684 35.021 29.6518 24.5905 32.3998 20.3747C30.0928 20.3383 27.8197 20.302 25.5467 20.2656ZM36.8103 20.3383C36.4031 20.3383 36.0299 20.3383 35.7246 20.7017C33.9604 23.0641 32.1963 25.4627 30.2285 28.1158C32.6712 28.1158 34.6729 28.1158 36.7085 28.1158C37.1156 28.1158 37.4888 28.0794 37.7941 27.716C39.5244 25.39 41.2546 23.0277 43.2224 20.3383C40.7457 20.3383 38.778 20.3383 36.8103 20.3383Z" fill="white"/>
<path d="M47.4633 0.53125C47.4633 0.53125 43.901 5.32855 42.1368 7.61817C38.8799 11.8703 35.8604 16.3042 32.3999 20.3746C30.0929 20.3383 27.8198 20.302 25.5467 20.2656C28.8715 15.3229 32.6374 10.7073 36.1657 5.91004C36.505 5.43758 36.8782 4.96512 37.2175 4.49266C38.5067 2.74818 40.4066 0.931025 40.4066 0.931025L47.4633 0.53125ZM25.9199 5.3649C25.9199 5.3649 18.3883 15.4683 14.826 20.302C17.133 20.3383 19.44 20.3746 21.747 20.3746C25.5128 15.432 29.2447 10.4893 33.282 5.18318C30.7375 5.18318 25.9199 5.3649 25.9199 5.3649ZM10.4495 12.5972C9.97448 12.5972 9.56736 12.6699 9.26202 13.106C7.59963 15.432 5.9033 17.7216 4.00342 20.3383C6.48005 20.3383 8.5835 20.3383 10.6869 20.3383C11.128 20.3383 11.3994 20.0839 11.6708 19.7568C13.3332 17.5035 14.9956 15.2139 16.8955 12.5972C14.4867 12.5972 12.485 12.5972 10.4495 12.5972Z" fill="#00ADEF"/>
<path d="M76.1651 31.6411C76.1651 30.1874 76.1311 28.7336 76.1651 27.2799C76.1651 26.7348 75.8597 25.8625 76.7079 25.8625C77.4543 25.8625 78.5399 25.2447 78.947 26.3713C79.2863 27.3162 79.4899 26.9165 79.897 26.5167C80.5416 25.8625 81.3558 25.5718 82.204 25.5354C83.8664 25.4264 84.4771 26.444 83.8664 28.1158C83.6628 28.7336 83.2896 28.5156 82.9164 28.5156C80.0327 28.5156 79.1506 29.4605 79.1506 32.477C79.1506 33.4582 79.0488 34.4395 79.1845 35.3844C79.4559 37.3106 78.5739 37.565 77.0811 37.4197C76.3686 37.347 76.0972 37.1289 76.1311 36.3657C76.199 34.7666 76.1651 33.2038 76.1651 31.6411Z" fill="white"/>
<path d="M87.7 27.2435C88.8196 25.8988 90.041 25.4264 91.5676 25.6081C92.789 25.7535 92.4158 26.553 92.3819 27.3162C92.348 28.0431 92.4497 28.6609 91.3302 28.5882C88.5821 28.4429 87.6322 29.5332 87.6322 32.4043C87.6322 33.4219 87.5304 34.4758 87.6661 35.4934C87.8697 37.0925 87.3608 37.6377 85.868 37.4923C84.952 37.3833 84.6127 37.2016 84.6127 36.1476C84.6806 33.3855 84.6127 30.5871 84.6466 27.825C84.6466 27.1709 84.1038 26.0806 85.2573 25.9352C86.2412 25.7171 87.4965 25.281 87.7 27.2435Z" fill="white"/>
<path d="M110.702 31.532C110.702 30.151 110.668 28.7699 110.736 27.3889C110.77 26.8438 110.363 25.9715 111.177 25.8988C111.924 25.8261 112.942 25.3173 113.45 26.2986C113.858 27.0982 114.061 26.8801 114.536 26.444C115.249 25.7535 116.097 25.4627 117.013 25.5354C117.691 25.6081 118.709 25.3537 118.539 26.7711C118.438 27.825 118.539 28.6609 117.013 28.5155C114.841 28.2975 113.756 29.6422 113.756 32.0408C113.756 33.2402 113.688 34.4758 113.79 35.6388C113.891 36.9472 113.552 37.3833 112.263 37.3833C110.94 37.3833 110.635 36.9108 110.736 35.6388C110.77 34.2941 110.702 32.9131 110.702 31.532Z" fill="white"/>
<path d="M82.1702 11.3252C82.1702 12.6699 82.1023 13.9782 82.2041 15.3229C82.3059 16.6313 82.0005 17.1037 80.6435 17.1037C79.3203 17.1037 79.0828 16.6313 79.1168 15.3229C79.2186 12.4881 79.2186 9.65337 79.1168 6.8186C79.0828 5.43756 79.6935 5.40121 80.6435 5.43756C81.5595 5.43756 82.3059 5.43756 82.2041 6.8186C82.0684 8.30867 82.1702 9.83508 82.1702 11.3252Z" fill="#00ADEF"/>
<path d="M96.453 31.6774C96.453 33.1312 96.3512 34.5849 96.4869 36.0386C96.6226 37.456 95.8763 37.4197 94.9602 37.3833C94.1121 37.347 93.3318 37.5287 93.3996 36.0386C93.5353 33.0221 93.5014 30.0057 93.3996 26.9892C93.3657 25.6081 94.146 25.7898 94.9263 25.7898C95.6727 25.7898 96.5548 25.5354 96.453 26.9528C96.3852 28.5156 96.453 30.1147 96.453 31.6774Z" fill="white"/>
<path d="M80.5755 0.349609C81.5254 0.458639 82.17 0.931101 82.2379 2.0214C82.3057 3.18438 81.729 3.8749 80.6773 3.94759C79.6934 4.02027 79.0488 3.32975 78.9809 2.31214C78.9131 1.1855 79.5238 0.531325 80.5755 0.349609Z" fill="#00ADEF"/>
<path d="M96.5548 22.5188C96.487 23.6091 95.9102 24.227 94.9263 24.227C93.9425 24.227 93.3318 23.6091 93.3318 22.5188C93.3318 21.3559 93.9425 20.6653 94.9942 20.7017C96.012 20.7744 96.5209 21.4649 96.5548 22.5188Z" fill="white"/>
<path d="M92.4497 5.61927C91.6354 6.12807 91.2962 5.80098 90.7194 5.54658C87.3946 4.12919 83.9002 6.4915 83.5949 10.3075C83.2556 14.378 86.9536 18.5574 91.6694 15.65C91.5676 19.0299 89.3284 19.8295 84.8501 18.085C85.1894 19.1026 84.3412 20.3383 85.4608 20.9198C87.5982 22.0464 89.8373 22.0827 92.0086 21.0288C93.9085 20.1202 94.7227 18.4121 94.7567 16.2315C94.7906 13.2877 94.8585 10.3075 94.8585 7.36374C94.8924 5.47389 93.9424 4.67434 92.4497 5.61927ZM89.1927 13.7601C87.7 13.7238 86.5804 12.4518 86.6143 10.8527C86.6482 9.36262 87.8017 8.0906 89.1927 8.05426C90.6516 8.01792 91.8051 9.25359 91.8051 10.9254C91.8051 12.6335 90.7533 13.7965 89.1927 13.7601Z" fill="#00ADEF"/>
<path d="M74.7063 27.5707C74.7063 25.8989 73.5188 25.0266 72.2636 26.0079C71.619 26.5167 71.3815 26.444 70.7708 26.1169C68.4977 24.9176 65.9532 25.5354 64.3926 27.607C62.6963 29.8603 62.6963 33.2402 64.3926 35.4935C65.9872 37.6377 68.5656 38.2556 70.9065 36.9472C71.4832 36.6201 71.619 36.6201 72.1957 37.1289C73.2814 38.1102 74.6723 37.2016 74.7063 35.6752C74.7063 34.3305 74.7063 33.0221 74.7063 31.6774C74.7063 30.3328 74.7063 28.9517 74.7063 27.5707ZM68.8709 34.803C67.3103 34.7666 66.055 33.3129 66.055 31.6048C66.055 29.8239 67.446 28.3339 69.0405 28.4066C70.7029 28.4792 71.7207 29.7513 71.6868 31.7138C71.6529 33.5673 70.4994 34.8393 68.8709 34.803Z" fill="white"/>
<path d="M107.819 33.1311C108.701 33.1675 108.972 32.804 109.04 31.8954C109.176 28.8426 107.072 26.0078 104.29 25.5717C101.576 25.1356 98.7263 27.3162 98.1496 30.2963C97.7085 32.5496 98.2853 34.5122 99.9138 36.0022C102.017 37.8921 104.392 38.1465 106.869 37.0925C107.378 36.8745 108.26 36.8381 107.819 35.8205C107.479 35.0936 107.31 34.3668 106.122 34.7302C104.494 35.239 102.798 35.348 101.271 33.1311C103.68 33.0948 105.749 33.0584 107.819 33.1311ZM102.085 30.5871C101.814 30.5871 101.44 30.5507 101.339 30.369C101.101 30.0056 101.44 29.7149 101.644 29.4241C102.899 27.6796 104.799 28.0794 105.987 30.5871C104.562 30.5871 103.306 30.6234 102.085 30.5871Z" fill="white"/>
</svg>
