<svg width="127" height="40" viewBox="0 0 127 40" fill="none" xmlns="http://www.w3.org/2000/svg">
<path d="M51.9165 28.7668C52.0255 25.7514 53.4424 23.0993 56.5305 21.5007C59.2916 20.0838 62.0164 20.3381 64.5596 22.1183C65.1772 22.5543 66.0854 22.9903 65.1045 23.8985C64.4506 24.5162 64.2689 26.0057 62.6704 24.8795C60.5632 23.4262 57.9837 23.9712 56.5305 25.8604C54.9683 27.8586 55.1136 30.8377 56.8575 32.6906C58.565 34.4708 61.1082 34.5797 63.2517 32.9449C64.3052 32.1456 65.9765 32.6179 66.4124 33.8168C66.6667 34.4344 66.0854 34.6887 65.7948 34.9794C63.5423 37.4135 60.1272 38.2128 57.1844 37.0866C54.0237 35.8876 51.9528 32.7632 51.9165 28.7668Z" fill="#611D69"/>
<path d="M106.449 6.02386C111.317 4.02568 114.877 6.45983 114.914 11.5461C114.914 12.8177 114.841 14.0893 114.95 15.3608C115.059 16.7051 114.696 17.141 113.279 17.1047C111.935 17.0684 111.644 16.6324 111.717 15.3972C111.789 13.9439 111.789 12.4907 111.717 11.0375C111.608 9.22095 110.336 7.98571 108.919 8.0947C107.466 8.2037 106.558 9.29361 106.521 11.1465C106.485 12.7087 106.449 14.3072 106.521 15.8695C106.594 17.2863 105.649 17.032 104.85 17.032C104.051 17.032 103.143 17.359 103.179 15.9058C103.252 11.0012 103.252 6.09652 103.179 1.22822C103.143 -0.152343 103.978 -0.00702111 104.814 0.0293095C105.613 0.0656401 106.594 -0.261335 106.521 1.15556C106.412 2.71777 106.449 4.27999 106.449 6.02386Z" fill="#00ADEF"/>
<path d="M62.4885 11.1465C62.4885 9.87492 62.4885 8.60335 62.4885 7.33177C62.4885 5.47891 63.5421 4.7523 65.177 5.62424C65.7583 5.95121 66.1216 6.02387 66.7392 5.84222C70.3723 4.64331 73.0244 6.56883 73.0971 10.3835C73.1334 12.1274 73.0244 13.9076 73.1334 15.6515C73.2424 17.032 72.5158 17.1047 71.4985 17.0684C70.5902 17.032 69.682 17.2137 69.791 15.7241C69.9363 14.0529 69.8273 12.3454 69.8273 10.6379C69.8273 9.29363 69.246 8.34903 67.8291 8.38536C66.4849 8.38536 65.7583 9.18464 65.7583 10.6015C65.7946 12.3454 65.6856 14.1256 65.7946 15.8695C65.8673 17.2864 64.9227 17.032 64.1234 17.032C63.3241 17.032 62.3795 17.3227 62.4522 15.8695C62.5612 14.3073 62.4885 12.7087 62.4885 11.1465Z" fill="#00ADEF"/>
<path d="M57.8022 17.0323C57.3299 17.0323 56.8213 17.0686 56.349 17.0323C55.7677 16.9596 54.7868 17.4319 54.8231 16.3783C54.8595 15.6154 54.0965 14.4891 55.4771 14.1258C56.2764 13.9078 56.022 13.2902 56.022 12.8179C56.0584 10.1658 56.022 7.51365 56.022 4.86151C56.022 4.28023 56.0584 3.84426 55.2228 3.55361C54.2055 3.19031 54.7868 2.06406 54.7505 1.30112C54.7141 0.356519 55.5861 0.647164 56.131 0.610833C57.0393 0.574503 57.9476 0.538172 58.8558 0.610833C59.5098 0.683495 60.5634 0.138535 60.6724 1.11946C60.7813 1.95507 61.4353 3.19031 59.9821 3.69894C59.3645 3.91692 59.6188 4.53454 59.6188 4.97051C59.5824 7.62264 59.5824 10.2748 59.6188 12.9269C59.6188 13.4355 59.5461 13.8715 60.2727 14.1985C61.3263 14.6708 60.745 15.797 60.745 16.5963C60.7087 17.3956 59.9094 17.0323 59.4371 17.0686C58.8922 17.0686 58.3472 17.0323 57.8022 17.0323Z" fill="#00ADEF"/>
<path d="M78.3651 17.3227C77.4932 17.2864 76.5123 17.0684 75.6403 16.4508C75.0591 16.0511 74.0781 15.4698 74.5141 14.8886C75.0227 14.2346 75.9673 13.3263 77.1299 14.1983C77.6022 14.5616 78.1472 14.5616 78.6921 14.5252C79.2371 14.4889 79.673 14.2709 79.782 13.726C79.9274 13.072 79.3461 12.9267 78.9464 12.745C78.5105 12.5634 78.0018 12.5271 77.5295 12.4181C75.2407 11.7641 74.1508 10.4562 74.4051 8.63969C74.6594 6.75049 76.4396 5.22461 78.5105 5.22461C79.6367 5.22461 80.654 5.55158 81.4896 6.35086C81.9619 6.78683 82.7611 7.44078 82.3615 7.94941C81.8529 8.60336 80.872 8.96666 79.9274 8.56703C79.6004 8.4217 79.3097 8.16739 78.9828 8.0584C78.3651 7.87674 77.8928 8.16739 77.6749 8.74868C77.4569 9.3663 77.9292 9.62061 78.4015 9.80227C78.8011 9.94759 79.2371 10.0202 79.6367 10.0929C82.1799 10.7469 83.4151 12.0911 83.1245 13.9803C82.8338 15.8331 80.8356 17.3227 78.3651 17.3227Z" fill="#00ADEF"/>
<path d="M121.053 17.4316C118.438 17.4316 117.202 16.3416 117.057 13.9075C116.984 12.7086 117.021 11.5097 116.984 10.2744C116.948 9.36617 117.311 8.34891 115.749 8.20359C115.022 8.13093 115.131 6.42339 115.967 5.91476C116.512 5.58778 117.093 5.3698 116.984 4.60686C116.621 2.42702 118.147 2.89932 119.346 2.86299C120.072 2.82666 120.363 3.18996 120.29 3.84392C120.109 5.11549 120.617 5.62412 121.889 5.44246C123.124 5.22448 123.379 5.8421 123.379 6.96835C123.415 8.13093 122.943 8.49423 121.889 8.31258C120.654 8.13093 120.109 8.60323 120.254 9.8748C120.363 10.7831 120.29 11.6913 120.29 12.5996C120.29 13.7622 120.763 14.5251 121.962 14.4525C122.906 14.4161 123.379 14.5251 123.342 15.6514C123.306 16.6686 123.088 17.2862 121.998 17.3226C121.635 17.3952 121.271 17.4316 121.053 17.4316Z" fill="#00ADEF"/>
<path d="M23.2879 20.3746C18.8193 26.0059 6.97548 39.9931 6.97548 39.9931L0 39.9568C0 39.9568 0.399637 39.4119 0.61762 39.1575C5.70391 32.8723 10.8265 26.5508 15.9128 20.2656C18.3833 20.302 20.8538 20.3383 23.2879 20.3746ZM27.357 20.2656C23.1063 25.0976 19.2552 30.2202 14.9682 35.4881C16.5304 35.4881 22.5613 35.0159 22.5613 35.0159C22.5613 35.0159 31.753 24.589 34.6957 20.3746C32.2253 20.3383 29.7911 20.302 27.357 20.2656ZM39.4187 20.3383C38.9827 20.3383 38.5831 20.3383 38.2561 20.7016C36.3669 23.0631 34.4777 25.4609 32.3706 28.113C34.9864 28.113 37.1299 28.113 39.3097 28.113C39.7457 28.113 40.1453 28.0767 40.4723 27.7134C42.3252 25.3882 44.178 23.0268 46.2852 20.3383C43.6331 20.3383 41.5259 20.3383 39.4187 20.3383Z" fill="#611D69"/>
<path d="M50.8266 0.538086C50.8266 0.538086 47.0119 5.33373 45.1227 7.62255C41.635 11.8732 38.4016 16.3056 34.6958 20.3746C32.2253 20.3383 29.7912 20.3019 27.357 20.2656C30.9174 15.3246 34.9501 10.7107 38.7285 5.91502C39.0918 5.44272 39.4915 4.97042 39.8548 4.49812C41.2353 2.75425 43.2698 0.937723 43.2698 0.937723L50.8266 0.538086ZM27.7567 5.37006C27.7567 5.37006 19.6913 15.47 15.8766 20.3019C18.3471 20.3383 20.8175 20.3746 23.288 20.3746C27.3207 15.4336 31.3171 10.4927 35.6404 5.1884C32.9156 5.1884 27.7567 5.37006 27.7567 5.37006ZM11.1899 12.5998C10.6813 12.5998 10.2453 12.6725 9.91835 13.1085C8.13815 15.4336 6.32162 17.7225 4.28711 20.3383C6.93924 20.3383 9.19174 20.3383 11.4442 20.3383C11.9165 20.3383 12.2072 20.084 12.4978 19.757C14.278 17.5045 16.0582 15.2157 18.0927 12.5998C15.5133 12.5998 13.3698 12.5998 11.1899 12.5998Z" fill="#00ADEF"/>
<path d="M81.5624 31.6369C81.5624 30.1837 81.5261 28.7304 81.5624 27.2772C81.5624 26.7323 81.2354 25.8603 82.1437 25.8603C82.943 25.8603 84.1056 25.2427 84.5415 26.369C84.9048 27.3136 85.1228 26.9139 85.5588 26.5143C86.2491 25.8603 87.121 25.5697 88.0293 25.5334C89.8095 25.4244 90.4634 26.4416 89.8095 28.1128C89.5915 28.7304 89.1918 28.5125 88.7922 28.5125C85.7041 28.5125 84.7595 29.4571 84.7595 32.4725C84.7595 33.4534 84.6505 34.4344 84.7958 35.3789C85.0865 37.3045 84.1419 37.5588 82.5433 37.4135C81.7804 37.3408 81.4898 37.1228 81.5261 36.3599C81.5988 34.7613 81.5624 33.1991 81.5624 31.6369Z" fill="#611D69"/>
<path d="M93.9147 27.241C95.1136 25.8968 96.4215 25.4245 98.0564 25.6061C99.3643 25.7514 98.9647 26.5507 98.9283 27.3137C98.892 28.0403 99.001 28.6579 97.8021 28.5852C94.8593 28.4399 93.842 29.5298 93.842 32.4C93.842 33.4172 93.733 34.4708 93.8784 35.4881C94.0964 37.0866 93.5514 37.6316 91.9529 37.4862C90.9719 37.3772 90.6086 37.1956 90.6086 36.142C90.6813 33.3809 90.6086 30.5834 90.6449 27.8223C90.6449 27.1683 90.0637 26.0784 91.2989 25.9331C92.3525 25.7151 93.6967 25.2792 93.9147 27.241Z" fill="#611D69"/>
<path d="M118.547 31.5279C118.547 30.1473 118.511 28.7667 118.583 27.3862C118.62 26.8412 118.184 25.9693 119.056 25.8966C119.855 25.824 120.945 25.3153 121.49 26.2963C121.926 27.0955 122.144 26.8776 122.652 26.4416C123.415 25.7513 124.323 25.4607 125.304 25.5333C126.031 25.606 127.121 25.3517 126.939 26.7686C126.83 27.8222 126.939 28.6578 125.304 28.5124C122.979 28.2944 121.817 29.6387 121.817 32.0365C121.817 33.2354 121.744 34.4707 121.853 35.6332C121.962 36.9411 121.599 37.3771 120.218 37.3771C118.801 37.3771 118.474 36.9048 118.583 35.6332C118.62 34.289 118.547 32.9084 118.547 31.5279Z" fill="#611D69"/>
<path d="M87.9929 11.3279C87.9929 12.6721 87.9203 13.98 88.0293 15.3242C88.1383 16.6321 87.8113 17.1044 86.3581 17.1044C84.9412 17.1044 84.6869 16.6321 84.7232 15.3242C84.8322 12.4905 84.8322 9.65666 84.7232 6.82288C84.6869 5.44231 85.3408 5.40598 86.3581 5.44231C87.339 5.44231 88.1383 5.44231 88.0293 6.82288C87.884 8.31243 87.9929 9.83832 87.9929 11.3279Z" fill="#00ADEF"/>
<path d="M103.288 31.6733C103.288 33.1265 103.179 34.5798 103.324 36.033C103.47 37.4499 102.67 37.4136 101.69 37.3772C100.781 37.3409 99.9457 37.5225 100.018 36.033C100.164 33.0176 100.127 30.0021 100.018 26.9867C99.982 25.6061 100.818 25.7878 101.653 25.7878C102.452 25.7878 103.397 25.5334 103.288 26.9503C103.215 28.5126 103.288 30.1111 103.288 31.6733Z" fill="#611D69"/>
<path d="M86.2853 0.356445C87.3025 0.465437 87.9928 0.937735 88.0655 2.02765C88.1381 3.19023 87.5205 3.88051 86.3943 3.95318C85.3407 4.02584 84.6504 3.33556 84.5777 2.3183C84.5051 1.19205 85.159 0.538098 86.2853 0.356445Z" fill="#00ADEF"/>
<path d="M103.397 22.5181C103.324 23.608 102.706 24.2256 101.653 24.2256C100.599 24.2256 99.9453 23.608 99.9453 22.5181C99.9453 21.3555 100.599 20.6652 101.726 20.7016C102.815 20.7742 103.36 21.4645 103.397 22.5181Z" fill="#611D69"/>
<path d="M99.0008 5.62422C98.1289 6.13285 97.7656 5.80588 97.1479 5.55156C93.5875 4.13467 89.8455 6.49616 89.5185 10.3109C89.1552 14.3799 93.1152 18.5579 98.1652 15.6515C98.0562 19.0302 95.6584 19.8295 90.8627 18.0856C91.226 19.1029 90.3178 20.3381 91.5167 20.9194C93.8055 22.0457 96.2033 22.082 98.5285 21.0284C100.563 20.1201 101.435 18.4126 101.471 16.2328C101.508 13.29 101.58 10.3109 101.58 7.36809C101.617 5.4789 100.599 4.67963 99.0008 5.62422ZM95.5131 13.7623C93.9145 13.7259 92.7156 12.4544 92.7519 10.8558C92.7883 9.36628 94.0235 8.09471 95.5131 8.05837C97.0753 8.02204 98.3105 9.25728 98.3105 10.9285C98.3105 12.636 97.1843 13.7986 95.5131 13.7623Z" fill="#00ADEF"/>
<path d="M79.9999 27.5678C79.9999 25.8965 78.7283 25.0246 77.3841 26.0055C76.6938 26.5142 76.4395 26.4415 75.7856 26.1145C73.3514 24.9156 70.6266 25.5332 68.9554 27.6041C67.1389 29.8566 67.1389 33.2353 68.9554 35.4878C70.663 37.6313 73.4241 38.249 75.9309 36.9411C76.5485 36.6141 76.6938 36.6141 77.3115 37.1227C78.474 38.1036 79.9636 37.1954 79.9999 35.6695C79.9999 34.3252 79.9999 33.0173 79.9999 31.6731C79.9999 30.3289 79.9999 28.9483 79.9999 27.5678ZM73.7511 34.7976C72.0798 34.7612 70.7356 33.308 70.7356 31.6005C70.7356 29.8203 72.2252 28.3307 73.9327 28.4034C75.7129 28.476 76.8028 29.7476 76.7665 31.7094C76.7302 33.5623 75.4949 34.8339 73.7511 34.7976Z" fill="#611D69"/>
<path d="M115.459 33.1265C116.403 33.1629 116.694 32.7995 116.767 31.8913C116.912 28.8395 114.659 26.0057 111.68 25.5698C108.774 25.1338 105.722 27.3136 105.105 30.2927C104.632 32.5452 105.25 34.5071 106.994 35.9966C109.246 37.8858 111.789 38.1401 114.442 37.0866C114.986 36.8686 115.931 36.8322 115.459 35.815C115.095 35.0884 114.914 34.3618 113.642 34.7251C111.898 35.2337 110.082 35.3427 108.447 33.1265C111.026 33.0902 113.243 33.0539 115.459 33.1265ZM109.319 30.5834C109.028 30.5834 108.629 30.547 108.52 30.3654C108.265 30.0021 108.629 29.7114 108.847 29.4208C110.191 27.6769 112.225 28.0766 113.497 30.5834C111.971 30.5834 110.627 30.6197 109.319 30.5834Z" fill="#611D69"/>
</svg>
